<svg width="31" height="31" viewBox="0 0 31 31" fill="none" xmlns="http://www.w3.org/2000/svg">
<path d="M25.1429 3H20.8571C19.2791 3 18 4.27919 18 5.85715V10.1429C18 11.7208 19.2791 13 20.8571 13H25.1429C26.7209 13 28 11.7208 28 10.1429V5.85715C28 4.27919 26.7209 3 25.1429 3Z" stroke="#1C202D" stroke-width="2" stroke-linecap="round" stroke-linejoin="round"/>
<path d="M10.1429 3H5.85714C4.27919 3 3 4.27919 3 5.85715V10.1429C3 11.7208 4.27919 13 5.85714 13H10.1429C11.7208 13 13 11.7208 13 10.1429V5.85715C13 4.27919 11.7208 3 10.1429 3Z" stroke="#1C202D" stroke-width="2" stroke-linecap="round" stroke-linejoin="round"/>
<path d="M25.1429 18H20.8571C19.2791 18 18 19.2791 18 20.8571V25.1429C18 26.7209 19.2791 28 20.8571 28H25.1429C26.7209 28 28 26.7209 28 25.1429V20.8571C28 19.2791 26.7209 18 25.1429 18Z" stroke="#1C202D" stroke-width="2" stroke-linecap="round" stroke-linejoin="round"/>
<path d="M10.1429 18H5.85714C4.27919 18 3 19.2791 3 20.8571V25.1429C3 26.7209 4.27919 28 5.85714 28H10.1429C11.7208 28 13 26.7209 13 25.1429V20.8571C13 19.2791 11.7208 18 10.1429 18Z" stroke="#1C202D" stroke-width="2" stroke-linecap="round" stroke-linejoin="round"/>
</svg>
