<svg width="31" height="31" viewBox="0 0 31 31" fill="none" xmlns="http://www.w3.org/2000/svg">
<path fill-rule="evenodd" clip-rule="evenodd" d="M7.96072 2.0625H8.03928C8.881 2.06249 9.56939 2.06248 10.1288 2.10819C10.7079 2.1555 11.2309 2.25643 11.7193 2.50529C12.4837 2.89478 13.1052 3.51625 13.4947 4.28066C13.7436 4.76909 13.8445 5.29209 13.8917 5.87116C13.9375 6.43061 13.9375 7.11899 13.9375 7.9607V8.54003L16.5069 5.9706C17.1021 5.3754 17.5889 4.88863 18.0167 4.52535C18.4597 4.14934 18.9009 3.85088 19.4222 3.68149C20.2381 3.41638 21.1171 3.41638 21.933 3.68149C22.4544 3.85088 22.8955 4.14934 23.3385 4.52535C23.7664 4.88861 24.2531 5.37538 24.8482 5.97055L24.9039 6.02619C25.499 6.62134 25.9857 7.10808 26.3491 7.53597C26.7251 7.9789 27.0235 8.42007 27.1929 8.94142C27.458 9.75735 27.458 10.6363 27.1929 11.4522C27.0235 11.9735 26.7251 12.4147 26.3491 12.8576C25.9857 13.2855 25.499 13.7722 24.9039 14.3674L22.2087 17.0625H23.0392C23.881 17.0625 24.5694 17.0625 25.1289 17.1082C25.7079 17.1555 26.2309 17.2564 26.7194 17.5052C27.4837 17.8947 28.1052 18.5162 28.4947 19.2806C28.7436 19.7691 28.8445 20.2921 28.8917 20.8711C28.9375 21.4306 28.9375 22.119 28.9375 22.9607V23.0392C28.9375 23.881 28.9375 24.5694 28.8917 25.1289C28.8445 25.7079 28.7436 26.2309 28.4947 26.7194C28.1052 27.4837 27.4837 28.1052 26.7194 28.4947C26.2309 28.7436 25.7079 28.8445 25.1289 28.8917C24.5694 28.9375 23.881 28.9375 23.0392 28.9375H8.10917C8.086 28.9375 8.06271 28.9375 8.0393 28.9375H7.9607C7.11899 28.9375 6.43061 28.9375 5.87116 28.8917C5.29209 28.8445 4.76909 28.7436 4.28066 28.4947C3.51625 28.1052 2.89478 27.4837 2.50529 26.7194C2.25643 26.2309 2.1555 25.7079 2.10819 25.1289C2.06248 24.5694 2.06249 23.881 2.0625 23.0392V7.96072C2.06249 7.119 2.06248 6.43062 2.10819 5.87116C2.1555 5.29209 2.25643 4.76909 2.50529 4.28066C2.89478 3.51625 3.51625 2.89478 4.28066 2.50529C4.76909 2.25643 5.29209 2.1555 5.87116 2.10819C6.43062 2.06248 7.119 2.06249 7.96072 2.0625ZM13.2982 27.0625H23C23.8905 27.0625 24.5021 27.0617 24.9761 27.023C25.4392 26.9852 25.688 26.9159 25.8681 26.8241C26.2797 26.6144 26.6144 26.2797 26.8241 25.8681C26.9159 25.688 26.9852 25.4392 27.023 24.9761C27.0617 24.5021 27.0625 23.8905 27.0625 23C27.0625 22.1095 27.0617 21.4979 27.023 21.0239C26.9852 20.5607 26.9159 20.312 26.8241 20.1319C26.6144 19.7202 26.2797 19.3856 25.8681 19.1759C25.688 19.0841 25.4392 19.0147 24.9761 18.977C24.5021 18.9382 23.8905 18.9375 23 18.9375H20.3337L13.864 25.4072C13.8077 25.8772 13.7031 26.3104 13.4947 26.7194C13.4346 26.8372 13.369 26.9517 13.2982 27.0625ZM13.9375 22.6821L23.5502 13.0694C24.18 12.4397 24.6119 12.0068 24.9196 11.6442C25.2204 11.2899 25.3472 11.065 25.4097 10.8728C25.5525 10.4334 25.5525 9.96018 25.4097 9.52082C25.3472 9.32864 25.2204 9.10367 24.9196 8.74944C24.6119 8.38683 24.18 7.9539 23.5502 7.32418C22.9205 6.69446 22.4876 6.26256 22.125 5.95474C21.7707 5.65401 21.5457 5.52716 21.3536 5.46471C20.9142 5.32196 20.441 5.32196 20.0016 5.46471C19.8095 5.52716 19.5845 5.65401 19.2302 5.95474C18.8676 6.26256 18.4347 6.69446 17.805 7.32418L15.1274 10.0018C14.3507 10.7785 14.1587 10.9939 14.0565 11.2409C13.9546 11.4868 13.9376 11.7732 13.9375 12.8585C13.9375 12.8638 13.9375 12.8691 13.9375 12.8744V22.6821ZM12.0625 23.0516C12.0625 23.9142 12.061 24.5112 12.023 24.9761C11.9852 25.4392 11.9158 25.688 11.8241 25.8681C11.6143 26.2797 11.2797 26.6144 10.8681 26.8241C10.6881 26.9159 10.4393 26.9852 9.97615 27.023C9.50209 27.0617 8.89055 27.0625 8 27.0625C7.10945 27.0625 6.49791 27.0617 6.02385 27.023C5.56072 26.9852 5.31195 26.9159 5.1319 26.8241C4.72029 26.6144 4.38565 26.2797 4.17593 25.8681C4.08419 25.688 4.0148 25.4392 3.97696 24.9761C3.93823 24.5021 3.9375 23.8905 3.9375 23V8C3.9375 7.10945 3.93823 6.49791 3.97696 6.02385C4.0148 5.56072 4.08419 5.31195 4.17593 5.1319C4.38565 4.72029 4.72029 4.38565 5.1319 4.17593C5.31195 4.08419 5.56072 4.0148 6.02385 3.97696C6.49791 3.93823 7.10945 3.9375 8 3.9375C8.89055 3.9375 9.50209 3.93823 9.97615 3.97696C10.4393 4.0148 10.6881 4.08419 10.8681 4.17593C11.2797 4.38565 11.6143 4.72029 11.8241 5.1319C11.9158 5.31195 11.9852 5.56072 12.023 6.02385C12.0618 6.49791 12.0625 7.10945 12.0625 8V12.4365C12.0622 12.5299 12.0623 12.6255 12.0624 12.7234C12.0624 12.7731 12.0625 12.8234 12.0625 12.8744V23C12.0625 23.0172 12.0625 23.0345 12.0625 23.0516Z" fill="#1C202D"/>
</svg>
