<svg width="30" height="31" viewBox="0 0 30 31" fill="none" xmlns="http://www.w3.org/2000/svg">
<g clip-path="url(#clip0_162_3258)">
<path d="M18.6875 15.6875H11.3125C10.7602 15.6875 10.3125 16.1352 10.3125 16.6875V20.3125C10.3125 20.8648 10.7602 21.3125 11.3125 21.3125H18.6875C19.2398 21.3125 19.6875 20.8648 19.6875 20.3125V16.6875C19.6875 16.1352 19.2398 15.6875 18.6875 15.6875Z" stroke="#1C202D" stroke-width="2" stroke-miterlimit="10" stroke-linecap="round" stroke-linejoin="round"/>
<path d="M28.0625 15.6875H20.6875C20.1352 15.6875 19.6875 16.1352 19.6875 16.6875V20.3125C19.6875 20.8648 20.1352 21.3125 20.6875 21.3125H28.0625C28.6148 21.3125 29.0625 20.8648 29.0625 20.3125V16.6875C29.0625 16.1352 28.6148 15.6875 28.0625 15.6875Z" stroke="#1C202D" stroke-width="2" stroke-miterlimit="10" stroke-linecap="round" stroke-linejoin="round"/>
<path d="M9.3125 15.6875H1.9375C1.38522 15.6875 0.9375 16.1352 0.9375 16.6875V20.3125C0.9375 20.8648 1.38522 21.3125 1.9375 21.3125H9.3125C9.86478 21.3125 10.3125 20.8648 10.3125 20.3125V16.6875C10.3125 16.1352 9.86478 15.6875 9.3125 15.6875Z" stroke="#1C202D" stroke-width="2" stroke-miterlimit="10" stroke-linecap="round" stroke-linejoin="round"/>
<path d="M23.375 21.3125H16C15.4477 21.3125 15 21.7602 15 22.3125V25.9375C15 26.4898 15.4477 26.9375 16 26.9375H23.375C23.9273 26.9375 24.375 26.4898 24.375 25.9375V22.3125C24.375 21.7602 23.9273 21.3125 23.375 21.3125Z" stroke="#1C202D" stroke-width="2" stroke-miterlimit="10" stroke-linecap="round" stroke-linejoin="round"/>
<path d="M14 21.3125H6.625C6.07272 21.3125 5.625 21.7602 5.625 22.3125V25.9375C5.625 26.4898 6.07272 26.9375 6.625 26.9375H14C14.5523 26.9375 15 26.4898 15 25.9375V22.3125C15 21.7602 14.5523 21.3125 14 21.3125Z" stroke="#1C202D" stroke-width="2" stroke-miterlimit="10" stroke-linecap="round" stroke-linejoin="round"/>
<path d="M23.375 10.0625H16C15.4477 10.0625 15 10.5102 15 11.0625V14.6875C15 15.2398 15.4477 15.6875 16 15.6875H23.375C23.9273 15.6875 24.375 15.2398 24.375 14.6875V11.0625C24.375 10.5102 23.9273 10.0625 23.375 10.0625Z" stroke="#1C202D" stroke-width="2" stroke-miterlimit="10" stroke-linecap="round" stroke-linejoin="round"/>
<path d="M19 4H11C10.4477 4 10 4.44772 10 5V9C10 9.55228 10.4477 10 11 10H19C19.5523 10 20 9.55228 20 9V5C20 4.44772 19.5523 4 19 4Z" stroke="#1C202D" stroke-width="2" stroke-miterlimit="10" stroke-linecap="round" stroke-linejoin="round"/>
<path d="M14 10.0625H6.625C6.07272 10.0625 5.625 10.5102 5.625 11.0625V14.6875C5.625 15.2398 6.07272 15.6875 6.625 15.6875H14C14.5523 15.6875 15 15.2398 15 14.6875V11.0625C15 10.5102 14.5523 10.0625 14 10.0625Z" stroke="#1C202D" stroke-width="2" stroke-miterlimit="10" stroke-linecap="round" stroke-linejoin="round"/>
</g>
<defs>
<clipPath id="clip0_162_3258">
<rect width="30" height="30" fill="white" transform="translate(0 0.5)"/>
</clipPath>
</defs>
</svg>
