<svg width="19" height="18" viewBox="0 0 19 18" fill="none" xmlns="http://www.w3.org/2000/svg">
<path d="M12.1382 1.5C14.6235 1.5 16.6382 3.51472 16.6382 6C16.6382 7.15298 16.2016 8.23825 15.4352 9.06265L15.2928 9.20881L8.7475 15.754L8.70765 15.7911L8.66586 15.8248C8.16395 16.2569 7.5227 16.5 6.84542 16.5C5.30409 16.5 4.05459 15.2505 4.05459 13.7092C4.05459 13.0331 4.29685 12.3936 4.72626 11.8931L4.83748 11.7709L4.84879 11.7619L10.317 6.2841C10.6097 5.99095 11.0846 5.99053 11.3777 6.28317C11.6709 6.5758 11.6713 7.05068 11.3786 7.34383L5.91038 12.8217L5.90218 12.8279C5.67995 13.0656 5.55459 13.3766 5.55459 13.7092C5.55459 14.4221 6.13251 15 6.84542 15C7.12963 15 7.39809 14.9085 7.61884 14.7428L7.71043 14.6673L7.71101 14.6685L14.2378 8.1428L14.3567 8.01951C14.8556 7.47224 15.1382 6.75937 15.1382 6C15.1382 4.34315 13.795 3 12.1382 3C11.342 3 10.5972 3.31095 10.0419 3.85394L9.92579 3.97382L9.91193 3.98354L2.91796 10.9802C2.62513 11.2732 2.15026 11.2733 1.8573 10.9804C1.56434 10.6876 1.56424 10.2127 1.85706 9.91978L8.83878 2.93493L8.87374 2.90266C9.71667 2.01433 10.887 1.5 12.1382 1.5Z" fill="#5168C0"/>
</svg>
