<svg width="18" height="19" viewBox="0 0 18 19" fill="none" xmlns="http://www.w3.org/2000/svg">
<path d="M14.0399 2.89038H11.8799C11.0846 2.89038 10.4399 3.53509 10.4399 4.33038V6.49038C10.4399 7.28567 11.0846 7.93037 11.8799 7.93037H14.0399C14.8353 7.93037 15.4799 7.28567 15.4799 6.49038V4.33038C15.4799 3.53509 14.8353 2.89038 14.0399 2.89038Z" stroke="black" stroke-width="1.4" stroke-linecap="round" stroke-linejoin="round"/>
<path d="M6.12002 2.89038H3.96002C3.16473 2.89038 2.52002 3.53509 2.52002 4.33038V6.49038C2.52002 7.28567 3.16473 7.93037 3.96002 7.93037H6.12002C6.91531 7.93037 7.56002 7.28567 7.56002 6.49038V4.33038C7.56002 3.53509 6.91531 2.89038 6.12002 2.89038Z" stroke="black" stroke-width="1.4" stroke-linecap="round" stroke-linejoin="round"/>
<path d="M14.0399 10.8103H11.8799C11.0846 10.8103 10.4399 11.455 10.4399 12.2503V14.4103C10.4399 15.2056 11.0846 15.8503 11.8799 15.8503H14.0399C14.8353 15.8503 15.4799 15.2056 15.4799 14.4103V12.2503C15.4799 11.455 14.8353 10.8103 14.0399 10.8103Z" stroke="black" stroke-width="1.4" stroke-linecap="round" stroke-linejoin="round"/>
<path d="M6.12002 10.8103H3.96002C3.16473 10.8103 2.52002 11.455 2.52002 12.2503V14.4103C2.52002 15.2056 3.16473 15.8503 3.96002 15.8503H6.12002C6.91531 15.8503 7.56002 15.2056 7.56002 14.4103V12.2503C7.56002 11.455 6.91531 10.8103 6.12002 10.8103Z" stroke="black" stroke-width="1.4" stroke-linecap="round" stroke-linejoin="round"/>
</svg>
