<svg width="30" height="31" viewBox="0 0 30 31" fill="none" xmlns="http://www.w3.org/2000/svg">
<path d="M3.78316 19.0829L1.65198 17.0278C0.782674 16.1895 0.782674 14.8105 1.65198 13.9722L3.78316 11.9171C4.14771 11.5656 4.44215 10.876 4.44215 10.3893V7.48243C4.44215 6.29265 5.45167 5.31921 6.68552 5.31921H9.70004C10.2048 5.31921 10.9199 5.03533 11.2844 4.6838L13.4156 2.62869C14.2849 1.79044 15.7151 1.79044 16.5844 2.62869L18.7156 4.6838C19.0801 5.03533 19.7952 5.31921 20.2999 5.31921H23.3145C24.5483 5.31921 25.5578 6.29265 25.5578 7.48243V10.3893C25.5578 10.876 25.8523 11.5656 26.2168 11.9171L28.348 13.9722C29.2173 14.8105 29.2173 16.1895 28.348 17.0278L26.2168 19.0829C25.8523 19.4344 25.5578 20.1239 25.5578 20.6107V23.5174C25.5578 24.7072 24.5483 25.6808 23.3145 25.6808H20.2999C19.7952 25.6808 19.0801 25.9647 18.7156 26.3162L16.5844 28.3713C15.7151 29.2096 14.2849 29.2096 13.4156 28.3713L11.2844 26.3162C10.9199 25.9647 10.2048 25.6808 9.70004 25.6808H6.68552C5.45167 25.6808 4.44215 24.7072 4.44215 23.5174V20.6107C4.44215 20.1104 4.14771 19.4209 3.78316 19.0829Z" stroke="#1C202D" stroke-width="2" stroke-linecap="round" stroke-linejoin="round"/>
<path d="M11.25 19.25L18.75 11.75" stroke="#1C202D" stroke-width="1.6" stroke-linecap="round" stroke-linejoin="round"/>
<path d="M18.1182 18.625H18.1294" stroke="#1C202D" stroke-width="1.6" stroke-linecap="round" stroke-linejoin="round"/>
<path d="M11.8682 12.375H11.8794" stroke="#1C202D" stroke-width="1.6" stroke-linecap="round" stroke-linejoin="round"/>
</svg>
