<svg width="19" height="19" viewBox="0 0 19 19" fill="none" xmlns="http://www.w3.org/2000/svg">
<g clip-path="url(#clip0_1_7173)">
<path d="M1.22481 3.90323C1.08081 3.75923 1.0105 3.57642 1.0105 3.35479C1.0105 3.13317 1.08081 2.95035 1.22481 2.80635C1.36881 2.66235 1.55162 2.59204 1.77325 2.59204H17.8112C18.0329 2.59204 18.2157 2.66235 18.3597 2.80635C18.5037 2.95035 18.574 3.13317 18.574 3.35479C18.574 3.57642 18.5037 3.75923 18.3597 3.90323C18.2157 4.04723 18.0329 4.11754 17.8112 4.11754H1.77325C1.55162 4.11754 1.36881 4.04723 1.22481 3.90323ZM18.3597 8.91679C18.5037 9.06079 18.574 9.2436 18.574 9.46523C18.574 9.68685 18.5037 9.86967 18.3597 10.0137C18.2157 10.1577 18.0329 10.228 17.8112 10.228H1.77325C1.55162 10.228 1.36881 10.1577 1.22481 10.0137C1.08081 9.86967 1.0105 9.68685 1.0105 9.46523C1.0105 9.2436 1.08081 9.06079 1.22481 8.91679C1.36881 8.77279 1.55162 8.70248 1.77325 8.70248H17.8112C18.0329 8.70248 18.2157 8.77279 18.3597 8.91679ZM18.3597 15.0233C18.5037 15.1673 18.574 15.3501 18.574 15.5717C18.574 15.7934 18.5037 15.9762 18.3597 16.1202C18.2157 16.2642 18.0329 16.3345 17.8112 16.3345H1.77325C1.55162 16.3345 1.36881 16.2642 1.22481 16.1202C1.08081 15.9762 1.0105 15.7934 1.0105 15.5717C1.0105 15.3501 1.08081 15.1673 1.22481 15.0233C1.36881 14.8793 1.55162 14.809 1.77325 14.809H17.8112C18.0329 14.809 18.2157 14.8827 18.3597 15.0233Z" fill="black"/>
</g>
<defs>
<clipPath id="clip0_1_7173">
<rect width="18" height="18" fill="white" transform="translate(0.75 0.5)"/>
</clipPath>
</defs>
</svg>
