<svg width="70" height="70" viewBox="0 0 70 70" fill="none" xmlns="http://www.w3.org/2000/svg">
<path d="M27.8956 25.4639L29.3961 30.8951C30.8107 36.0153 31.518 38.5755 33.5976 39.7402C35.6769 40.9045 38.3168 40.2185 43.5959 38.8465L49.1956 37.3914C54.4751 36.0194 57.1147 35.3334 58.3155 33.3162C59.516 31.2993 58.8087 28.7392 57.3941 23.6188L55.8938 18.1878C54.4792 13.0673 53.7719 10.5071 51.6923 9.34264C49.6127 8.17816 46.9728 8.86419 41.6937 10.2362L36.094 11.6914C30.8145 13.0634 28.175 13.7494 26.9743 15.7664C25.7737 17.7833 26.481 20.3436 27.8956 25.4639Z" fill="#E5EBFF"/>
<path d="M6.64268 15.3036C6.96567 14.1394 8.17125 13.4575 9.33538 13.7805L14.3045 15.1592C16.9788 15.9011 19.0951 17.9627 19.8334 20.6351L26.1073 43.3443L26.5689 44.9385C28.4156 45.6277 30.0017 46.9192 31.0083 48.6345L31.9124 48.3554L57.7835 41.6322C58.9528 41.3283 60.1472 42.0297 60.4511 43.199C60.755 44.3683 60.0533 45.5624 58.884 45.8663L33.1085 52.565L32.1498 52.8611C32.1303 56.5679 29.5727 59.9535 25.7027 60.9592C21.0638 62.1646 16.2957 59.4947 15.0527 54.9955C13.8097 50.4962 16.5626 45.8716 21.2015 44.6661C21.4314 44.6063 21.6616 44.5561 21.8916 44.515L15.6164 21.8001C15.3006 20.657 14.3762 19.7193 13.1349 19.3749L8.16574 17.9963C7.00158 17.6733 6.31969 16.4677 6.64268 15.3036Z" fill="#5168C0"/>
</svg>
