<svg width="188" height="187" viewBox="0 0 188 187" fill="none" xmlns="http://www.w3.org/2000/svg">
<path d="M29.2541 115.569L16.9696 103.251C11.9587 98.2274 11.9587 89.962 16.9696 84.938L29.2541 72.6208C31.3555 70.5139 33.0527 66.3812 33.0527 63.464V46.0416C33.0527 38.9107 38.8717 33.0765 45.9839 33.0765H63.3602C66.2697 33.0765 70.3916 31.375 72.4929 29.2681L84.7775 16.9509C89.7884 11.9268 98.032 11.9268 103.043 16.9509L115.328 29.2681C117.429 31.375 121.551 33.0765 124.46 33.0765H141.837C148.949 33.0765 154.768 38.9107 154.768 46.0416V63.464C154.768 66.3812 156.465 70.5139 158.566 72.6208L170.851 84.938C175.862 89.962 175.862 98.2274 170.851 103.251L158.566 115.569C156.465 117.675 154.768 121.808 154.768 124.725V142.147C154.768 149.278 148.949 155.113 141.837 155.113H124.46C121.551 155.113 117.429 156.815 115.328 158.921L103.043 171.238C98.032 176.263 89.7884 176.263 84.7775 171.238L72.4929 158.921C70.3916 156.815 66.2697 155.113 63.3602 155.113H45.9839C38.8717 155.113 33.0527 149.278 33.0527 142.147V124.725C33.0527 121.727 31.3555 117.594 29.2541 115.569Z" fill="white"/>
<path d="M69.7539 118.32L118.246 69.7004" stroke="#DC002A" stroke-width="8.21277" stroke-linecap="round" stroke-linejoin="round"/>
<path d="M114.161 114.269H114.234" stroke="#DC002A" stroke-width="14" stroke-linecap="round" stroke-linejoin="round"/>
<path d="M73.7507 73.7521H73.8236" stroke="#DC002A" stroke-width="14" stroke-linecap="round" stroke-linejoin="round"/>
</svg>
