<?xml version="1.0" encoding="utf-8"?><svg viewBox="0 0 502.66 502.66" xmlns="http://www.w3.org/2000/svg" xmlns:xlink="http://www.w3.org/1999/xlink"><style>:root>svg{display:none}:root>svg:target{display:block}</style><svg viewBox="0 0 31 31" id="assor" xmlns="http://www.w3.org/2000/svg"><path d="M25.143 3h-4.286A2.857 2.857 0 0 0 18 5.857v4.286A2.857 2.857 0 0 0 20.857 13h4.286A2.857 2.857 0 0 0 28 10.143V5.857A2.857 2.857 0 0 0 25.143 3Zm-15 0H5.857A2.857 2.857 0 0 0 3 5.857v4.286A2.857 2.857 0 0 0 5.857 13h4.286A2.857 2.857 0 0 0 13 10.143V5.857A2.857 2.857 0 0 0 10.143 3Zm15 15h-4.286A2.857 2.857 0 0 0 18 20.857v4.286A2.857 2.857 0 0 0 20.857 28h4.286A2.857 2.857 0 0 0 28 25.143v-4.286A2.857 2.857 0 0 0 25.143 18Zm-15 0H5.857A2.857 2.857 0 0 0 3 20.857v4.286A2.857 2.857 0 0 0 5.857 28h4.286A2.857 2.857 0 0 0 13 25.143v-4.286A2.857 2.857 0 0 0 10.143 18Z"/></svg><svg viewBox="0 0 31 31" id="cons" xmlns="http://www.w3.org/2000/svg"><path fill-rule="evenodd" clip-rule="evenodd" d="M7.96 2.063h.08c.841 0 1.53 0 2.089.045.579.047 1.102.148 1.59.397a4.063 4.063 0 0 1 1.776 1.776c.249.488.35 1.011.397 1.59.046.56.046 1.248.046 2.09v.579l2.569-2.57c.595-.595 1.082-1.081 1.51-1.445.443-.376.884-.674 1.405-.844a4.063 4.063 0 0 1 2.511 0c.521.17.962.468 1.405.844.428.364.915.85 1.51 1.446l.056.055c.595.595 1.082 1.082 1.445 1.51.376.443.674.884.844 1.405a4.063 4.063 0 0 1 0 2.511c-.17.521-.468.963-.844 1.406-.363.428-.85.914-1.445 1.51l-2.695 2.694h.83c.842 0 1.53 0 2.09.046.579.047 1.102.148 1.59.397a4.063 4.063 0 0 1 1.776 1.776c.249.488.35 1.011.397 1.59.046.56.046 1.248.046 2.09v.078c0 .842 0 1.53-.046 2.09-.047.579-.148 1.102-.397 1.59a4.063 4.063 0 0 1-1.776 1.776c-.488.249-1.011.35-1.59.397-.56.046-1.248.046-2.09.046H7.961c-.842 0-1.53 0-2.09-.046-.579-.047-1.102-.148-1.59-.397a4.063 4.063 0 0 1-1.776-1.776c-.249-.488-.35-1.011-.397-1.59-.046-.56-.046-1.248-.046-2.09V7.961c0-.842 0-1.53.046-2.09.047-.579.148-1.102.397-1.59a4.062 4.062 0 0 1 1.776-1.776c.488-.249 1.011-.35 1.59-.397.56-.046 1.248-.046 2.09-.046Zm5.338 25H23c.89 0 1.502-.001 1.976-.04.463-.038.712-.107.892-.199.412-.21.746-.544.956-.956.092-.18.161-.429.199-.892.039-.474.04-1.085.04-1.976 0-.89-.001-1.502-.04-1.976-.038-.463-.107-.712-.199-.892a2.187 2.187 0 0 0-.956-.956c-.18-.092-.429-.161-.892-.199-.474-.039-1.085-.04-1.976-.04h-2.666l-6.47 6.47c-.056.47-.16.903-.37 1.312a3.85 3.85 0 0 1-.196.343Zm.64-4.38 9.612-9.614c.63-.63 1.062-1.062 1.37-1.425.3-.354.427-.579.49-.771.142-.44.142-.913 0-1.352-.063-.192-.19-.417-.49-.772-.308-.362-.74-.795-1.37-1.425-.63-.63-1.062-1.061-1.425-1.37-.354-.3-.58-.427-.771-.49a2.188 2.188 0 0 0-1.352 0c-.192.063-.418.19-.772.49-.362.309-.795.74-1.425 1.37l-2.678 2.678c-.776.776-.968.992-1.07 1.239-.102.246-.12.532-.12 1.617v9.824Zm-1.876.369c0 .862-.001 1.46-.039 1.924-.038.463-.107.712-.199.892-.21.412-.544.746-.956.956-.18.092-.429.161-.892.199-.474.039-1.085.04-1.976.04-.89 0-1.502-.001-1.976-.04-.463-.038-.712-.107-.892-.199a2.187 2.187 0 0 1-.956-.956c-.092-.18-.161-.429-.199-.892-.039-.474-.04-1.085-.04-1.976V8c0-.89.001-1.502.04-1.976.038-.463.107-.712.199-.892.21-.412.544-.746.956-.956.18-.092.429-.161.892-.199.474-.039 1.085-.04 1.976-.04.89 0 1.502.001 1.976.04.463.038.712.107.892.199.412.21.746.544.956.956.092.18.161.429.199.892.039.474.04 1.085.04 1.976v15.052Z"/></svg><svg viewBox="0 0 30 31" id="goods" xmlns="http://www.w3.org/2000/svg"><g clip-path="url(#ca)" stroke-width="2" stroke-miterlimit="10" stroke-linecap="round" stroke-linejoin="round"><path d="M18.688 15.688h-7.375a1 1 0 0 0-1 1v3.625a1 1 0 0 0 1 1h7.374a1 1 0 0 0 1-1v-3.625a1 1 0 0 0-1-1Zm9.375 0h-7.375a1 1 0 0 0-1 1v3.625a1 1 0 0 0 1 1h7.375a1 1 0 0 0 1-1v-3.625a1 1 0 0 0-1-1Zm-18.75 0H1.936a1 1 0 0 0-1 1v3.625a1 1 0 0 0 1 1h7.375a1 1 0 0 0 1-1v-3.625a1 1 0 0 0-1-1Z"/><path d="M23.375 21.313H16a1 1 0 0 0-1 1v3.625a1 1 0 0 0 1 1h7.375a1 1 0 0 0 1-1v-3.625a1 1 0 0 0-1-1Zm-9.375 0H6.625a1 1 0 0 0-1 1v3.625a1 1 0 0 0 1 1H14a1 1 0 0 0 1-1v-3.625a1 1 0 0 0-1-1Zm9.375-11.25H16a1 1 0 0 0-1 1v3.624a1 1 0 0 0 1 1h7.375a1 1 0 0 0 1-1v-3.624a1 1 0 0 0-1-1ZM19 4h-8a1 1 0 0 0-1 1v4a1 1 0 0 0 1 1h8a1 1 0 0 0 1-1V5a1 1 0 0 0-1-1Zm-5 6.063H6.625a1 1 0 0 0-1 1v3.624a1 1 0 0 0 1 1H14a1 1 0 0 0 1-1v-3.624a1 1 0 0 0-1-1Z"/></g><defs><clipPath id="ca"><path transform="translate(0 .5)" d="M0 0h30v30H0z"/></clipPath></defs></svg><svg viewBox="0 0 502.664 502.664" xml:space="preserve" id="icon" xmlns="http://www.w3.org/2000/svg"><path d="M153.821 358.226 0 274.337v-46.463l153.821-83.414v54.574L46.636 250.523l107.185 53.431v54.272zm26.273 29.358L282.103 115.08h32.227L212.084 387.584h-31.99zm168.749-29.358v-54.272l107.164-52.999-107.164-52.59v-53.927l153.821 83.522v46.183l-153.821 84.083z"/></svg><svg viewBox="0 0 30 31" id="prices" xmlns="http://www.w3.org/2000/svg"><path d="m3.783 19.083-2.131-2.055a2.116 2.116 0 0 1 0-3.056l2.131-2.055c.365-.351.66-1.041.66-1.528V7.482c0-1.19 1.009-2.163 2.243-2.163H9.7c.505 0 1.22-.284 1.584-.635l2.132-2.055c.869-.839 2.3-.839 3.168 0l2.132 2.055c.364.351 1.08.635 1.584.635h3.014c1.234 0 2.244.974 2.244 2.163v2.907c0 .487.294 1.177.659 1.528l2.131 2.055c.87.838.87 2.217 0 3.056l-2.131 2.055c-.365.351-.66 1.04-.66 1.528v2.906c0 1.19-1.009 2.164-2.242 2.164H20.3c-.505 0-1.22.284-1.584.635l-2.132 2.055c-.869.839-2.3.839-3.168 0l-2.132-2.055c-.364-.351-1.08-.635-1.584-.635H6.686c-1.234 0-2.244-.974-2.244-2.164v-2.906c0-.5-.294-1.19-.659-1.528ZM11.25 19.25l7.5-7.5m-.632 6.875h.011m-6.261-6.25h.011"/></svg></svg>